<svg width="24" height="24" viewBox="0 0 24 24" fill="none" xmlns="http://www.w3.org/2000/svg">
<path d="M12 18C15.8391 18 18.8297 15.7125 22.5 12C19.3406 8.82656 16.6875 6 12 6C7.31719 6 3.87188 9.58125 1.5 11.9344C3.92813 14.6906 7.36875 18 12 18ZM12 7.72031C14.3156 7.72031 16.2 9.64219 16.2 12C16.2 14.3625 14.3156 16.2797 12 16.2797C9.68437 16.2797 7.8 14.3578 7.8 12C7.8 9.6375 9.68437 7.72031 12 7.72031Z" fill="white"/>
<path d="M11.9996 13.5C11.9996 13.8703 11.8637 14.2078 11.6434 14.4703C11.7605 14.489 11.8777 14.4984 11.9996 14.4984C13.3496 14.4984 14.4512 13.3781 14.4512 12C14.4512 10.6219 13.3496 9.50154 11.9996 9.50154C10.6496 9.50154 9.54805 10.6219 9.54805 12C9.54805 12.1078 9.55742 12.2156 9.5668 12.3234C9.82461 12.1219 10.1434 12 10.4949 12C11.3293 12 11.9996 12.6703 11.9996 13.5Z" fill="white"/>
</svg>
