<svg width="22" height="22" viewBox="0 0 22 22" fill="none" xmlns="http://www.w3.org/2000/svg">
<path d="M8.30797 9.76459C8.67419 9.76459 8.97141 9.46736 8.97141 9.10115V6.51374C8.97141 5.35704 9.91249 4.41562 11.0692 4.41562C12.2259 4.41562 13.1673 5.35704 13.1673 6.51374V9.10115C13.1673 9.46736 13.4642 9.76459 13.8308 9.76459C14.197 9.76459 14.4942 9.46736 14.4942 9.10115V6.51374C14.4945 4.62527 12.958 3.08875 11.0692 3.08875C9.18105 3.08875 7.64453 4.62527 7.64453 6.51374V9.10115C7.64453 9.46736 7.94175 9.76459 8.30797 9.76459Z" fill="white"/>
<path d="M18.6803 8.27386H15.1588V9.10117C15.1588 9.83294 14.5637 10.428 13.8319 10.428C13.1001 10.428 12.505 9.83294 12.505 9.10117V8.27386H9.63599V9.10117C9.63599 9.83294 9.04089 10.428 8.30912 10.428C7.57735 10.428 6.98224 9.83294 6.98224 9.10117V8.27386H3.42124C3.23813 8.27386 3.12502 8.41816 3.16847 8.59596L5.48984 18.049C5.62982 18.5804 6.1891 19.0113 6.73843 19.0113H15.3631C15.9131 19.0113 16.4717 18.5804 16.6124 18.049L18.9331 8.59596C18.9765 8.41783 18.8637 8.27386 18.6803 8.27386Z" fill="white"/>
</svg>
